<svg xmlns="http://www.w3.org/2000/svg" viewBox="0 0 512 512">
<rect width="512" height="512" rx="110" fill="#ff7ca8"/>
<circle cx="256" cy="270" r="145" fill="#fff" stroke="#20232b" stroke-width="26"/>
<path d="M120 205 168 70l90 105M392 205 344 70l-90 105" fill="#20232b"/>
<path d="M117 203 165 96l65 94" fill="#ff9fb2"/>
<path d="M395 203 347 96l-65 94" fill="#ff9fb2"/>
<path d="M118 210c15-66 74-104 137-82v154H118z" fill="#20232b"/>
<ellipse cx="205" cy="258" rx="30" ry="42" fill="#48b97a"/>
<ellipse cx="307" cy="258" rx="30" ry="42" fill="#48b97a"/>
<circle cx="195" cy="245" r="9" fill="#fff"/><circle cx="297" cy="245" r="9" fill="#fff"/>
<path d="M244 316q12 11 24 0" fill="none" stroke="#e9558a" stroke-width="12" stroke-linecap="round"/>
</svg>